<?xml version="1.0" encoding="UTF-8"?>
<svg version="1.1" xmlns="http://www.w3.org/2000/svg" width="512" height="512">
<path d="M0 0 C9.13264684 6.26556421 16.01795428 13.7094993 19.94921875 24.16796875 C20.59691039 27.95768116 20.62974881 31.63853871 20.578125 35.4765625 C20.58053696 36.52393082 20.58294891 37.57129913 20.58543396 38.65040588 C20.58446046 40.85136729 20.57118677 43.0523547 20.54614258 45.25317383 C20.51184195 48.59347074 20.52551112 51.93111469 20.54492188 55.27148438 C20.53802157 57.42318818 20.52834752 59.57488524 20.515625 61.7265625 C20.52058487 62.710233 20.52554474 63.6939035 20.53065491 64.7073822 C20.34832982 75.6207419 17.03081188 84.13876565 9.45703125 92 C2.34834003 98.1453639 -5.10547818 100.33220285 -14.36328125 100.23046875 C-15.43191406 100.22144531 -16.50054687 100.21242188 -17.6015625 100.203125 C-18.40980469 100.19152344 -19.21804688 100.17992188 -20.05078125 100.16796875 C-10.55289029 107.57944326 -1.03624524 114.96388657 8.54614258 122.26586914 C12.97973611 125.64879471 17.38848064 129.0613142 21.77783203 132.50146484 C23.30966327 133.69650818 24.84713887 134.88435123 26.39013672 136.06494141 C29.80462649 138.67869124 33.13677362 141.29229898 36.29296875 144.21484375 C56.35059607 162.07885745 87.33539061 161.09698222 112.44482422 160.86962891 C113.47719208 160.86559052 114.50955994 160.86155212 115.57321167 160.85739136 C117.51215687 160.84605388 119.45111617 160.81696337 121.38943481 160.76638794 C128.39962476 160.72064851 133.88686627 162.19278001 139.0078125 167.16796875 C139.46285156 167.82796875 139.91789062 168.48796875 140.38671875 169.16796875 C140.85980469 169.82796875 141.33289063 170.48796875 141.8203125 171.16796875 C143.77819347 174.63660217 144.07695062 177.88779855 144.11035156 181.82543945 C144.11995911 182.74351883 144.12956665 183.66159821 144.13946533 184.60749817 C144.14584015 186.08569283 144.14584015 186.08569283 144.15234375 187.59375 C144.15804382 188.61470261 144.1637439 189.63565521 144.1696167 190.68754578 C144.17905678 192.84694383 144.18559674 195.00635624 144.18945312 197.16577148 C144.1991519 200.45777717 144.23018234 203.74915657 144.26171875 207.04101562 C144.26824993 209.14192339 144.27349995 211.2428356 144.27734375 213.34375 C144.28969055 214.32314041 144.30203735 215.30253082 144.3147583 216.31159973 C144.28912623 224.23358581 142.74720581 230.36998169 136.94921875 236.16796875 C131.51667318 240.03343387 127.21702934 240.40176255 120.65234375 240.2734375 C119.91064941 240.26582397 119.16895508 240.25821045 118.40478516 240.25036621 C116.58616305 240.23059858 114.76766025 240.20033626 112.94921875 240.16796875 C113.17030556 241.40191879 113.17030556 241.40191879 113.39585876 242.66079712 C116.47036275 259.93312045 119.29867258 277.21721413 121.73726273 294.59145355 C122.55006342 300.33428992 123.3973126 306.07216635 124.24393654 311.81010056 C124.96503145 316.71741411 125.66251759 321.62624841 126.31665039 326.54296875 C126.96540392 331.409423 127.67192337 336.26428515 128.41889763 341.11659622 C128.68908529 342.94037961 128.93836369 344.76739827 129.16537666 346.59705734 C129.85472045 352.10079926 130.61638872 357.10507289 132.94921875 362.16796875 C136.21825882 364.48837702 138.88456468 365.47923748 142.77427673 366.38760376 C147.83712061 367.63199377 151.16571187 370.71830071 154.94921875 374.16796875 C155.58601563 374.73644531 156.2228125 375.30492187 156.87890625 375.890625 C162.46571097 381.15373073 167.61744905 387.20549589 167.94921875 395.16796875 C167.38671875 399.04296875 167.38671875 399.04296875 167.0078125 400.84765625 C166.93481079 403.73852397 167.72386269 406.23959119 168.46655273 409.01367188 C169.24797949 412.50143599 169.29038231 415.91840713 169.26171875 419.48046875 C169.2560791 420.22321045 169.25043945 420.96595215 169.24462891 421.73120117 C168.93440578 435.88014003 163.210837 448.69389045 153.43359375 458.9140625 C139.7910938 471.29098462 125.17283622 473.97276198 107.46142578 473.34277344 C95.8870969 472.53740711 83.33341772 465.67388202 75.53515625 457.171875 C67.9227443 447.55323625 63.46941635 438.32954953 61.94921875 426.16796875 C28.61921875 426.16796875 -4.71078125 426.16796875 -39.05078125 426.16796875 C-39.38078125 428.80796875 -39.71078125 431.44796875 -40.05078125 434.16796875 C-42.22227343 442.27732657 -46.82411382 448.71676781 -52.05078125 455.16796875 C-52.57285156 455.81765625 -53.09492188 456.46734375 -53.6328125 457.13671875 C-62.46540382 466.97555465 -75.90397841 472.7154926 -88.875 473.51171875 C-104.83275217 474.14051663 -117.36480685 471.43642727 -130.05078125 461.16796875 C-131.10265625 460.40484375 -132.15453125 459.64171875 -133.23828125 458.85546875 C-140.96947484 451.46788376 -146.16000302 442.2338227 -148.66015625 431.91015625 C-148.92280273 430.83362793 -149.18544922 429.75709961 -149.45605469 428.64794922 C-149.65231445 427.82955566 -149.84857422 427.01116211 -150.05078125 426.16796875 C-150.81745117 426.18891602 -151.58412109 426.20986328 -152.37402344 426.23144531 C-155.84947585 426.31462033 -159.32471888 426.3666345 -162.80078125 426.41796875 C-164.610625 426.46824219 -164.610625 426.46824219 -166.45703125 426.51953125 C-167.6171875 426.53242188 -168.77734375 426.5453125 -169.97265625 426.55859375 C-171.0409668 426.57954102 -172.10927734 426.60048828 -173.20996094 426.62207031 C-176.75538974 426.05533797 -177.87361665 424.96681936 -180.05078125 422.16796875 C-181.13735565 418.90824554 -181.18421948 416.51340763 -181.19604492 413.08276367 C-181.20242477 411.82682907 -181.20880463 410.57089447 -181.21537781 409.27690125 C-181.21690813 407.90074706 -181.21802121 406.52459235 -181.21875 405.1484375 C-181.22196671 403.72894762 -181.22533109 402.30945807 -181.22883606 400.88996887 C-181.23482975 397.90653722 -181.23667612 394.92313452 -181.23608398 391.93969727 C-181.23598326 388.15545751 -181.24953983 384.37140922 -181.26685619 380.58721447 C-181.27810378 377.64855639 -181.2799992 374.7099424 -181.27947426 371.77126503 C-181.28063896 370.378913 -181.28497361 368.98655923 -181.29280663 367.59422874 C-181.42670692 341.29580674 -174.97704623 319.30665375 -156.30078125 300.23046875 C-154.02272568 297.98005949 -151.62083668 296.07500808 -149.05078125 294.16796875 C-150.03010872 294.15583847 -150.03010872 294.15583847 -151.02922058 294.14346313 C-157.82640006 294.05738501 -164.62328901 293.95787959 -171.42016602 293.85058594 C-173.9565747 293.81231032 -176.49303741 293.77745499 -179.02954102 293.74609375 C-182.67614036 293.70041312 -186.32236827 293.64242245 -189.96875 293.58203125 C-191.10225388 293.57048004 -192.23575775 293.55892883 -193.40361023 293.54702759 C-194.46433243 293.5271579 -195.52505463 293.50728821 -196.61791992 293.48681641 C-197.54835617 293.47349274 -198.47879242 293.46016907 -199.43742371 293.44644165 C-203.07717166 293.05859913 -205.96369684 292.06093095 -208.80078125 289.73046875 C-210.96343174 287.02715563 -211.1747938 284.4799484 -211.16430664 281.15551758 C-211.16423111 280.35491409 -211.16415558 279.55431061 -211.16407776 278.72944641 C-211.15891647 277.8699791 -211.15375519 277.01051178 -211.1484375 276.125 C-211.14702255 275.24140305 -211.1456076 274.35780609 -211.14414978 273.44743347 C-211.13855194 270.62507747 -211.12599986 267.80280078 -211.11328125 264.98046875 C-211.10826597 263.06705844 -211.10370311 261.15364688 -211.09960938 259.24023438 C-211.08858322 254.54944861 -211.07132008 249.85872212 -211.05078125 245.16796875 C-212.02426514 245.17844238 -212.99774902 245.18891602 -214.00073242 245.19970703 C-217.625532 245.23601081 -221.25031561 245.25890685 -224.87524414 245.27783203 C-226.44167792 245.28786601 -228.00809308 245.30149629 -229.57446289 245.31884766 C-231.83093878 245.343211 -234.08716619 245.35447791 -236.34375 245.36328125 C-237.03977829 245.37360382 -237.73580658 245.38392639 -238.45292664 245.39456177 C-243.29011963 245.3956684 -246.94189191 244.76001869 -250.8359375 241.8203125 C-252.83629698 239.09956633 -252.51648376 236.59769597 -252.41015625 233.328125 C-252.05078125 231.16796875 -252.05078125 231.16796875 -250.23828125 228.66796875 C-246.08198155 225.81793467 -242.16185764 226.03599809 -237.3203125 226.0703125 C-236.19468147 226.07243492 -236.19468147 226.07243492 -235.04631042 226.07460022 C-232.65192665 226.08019315 -230.25763672 226.09274431 -227.86328125 226.10546875 C-226.23893364 226.11048467 -224.61458457 226.11504741 -222.99023438 226.11914062 C-219.01038056 226.13016027 -215.03059681 226.14742002 -211.05078125 226.16796875 C-211.05522247 225.53649429 -211.0596637 224.90501984 -211.0642395 224.25440979 C-211.10866321 217.65148188 -211.13872645 211.04859679 -211.16064453 204.44555664 C-211.1706701 201.9849271 -211.18429399 199.52430938 -211.20166016 197.0637207 C-211.22606003 193.51640903 -211.23729912 189.96925561 -211.24609375 186.421875 C-211.25641632 185.33089005 -211.26673889 184.23990509 -211.27737427 183.11585999 C-211.27876034 173.56962772 -210.51138557 164.63460391 -204.05078125 157.16796875 C-193.79375562 148.18560261 -181.71420003 148.86559901 -168.86328125 148.90234375 C-167.1937657 148.90099394 -165.52425054 148.89905078 -163.85473633 148.89654541 C-160.36828848 148.89360902 -156.88194362 148.89784376 -153.39550781 148.90722656 C-148.94730936 148.9186202 -144.49935234 148.91205274 -140.05116272 148.90008163 C-136.60744437 148.89282278 -133.16378239 148.89516937 -129.72006226 148.90033722 C-128.08075939 148.9016626 -126.44145124 148.90006537 -124.80215454 148.89537811 C-103.26764644 148.84730322 -103.26764644 148.84730322 -95.05078125 155.16796875 C-93.03230643 147.85635063 -91.50344128 140.51291154 -90.1484375 133.0546875 C-89.98298431 132.1500174 -89.81753113 131.24534729 -89.64706421 130.31326294 C-88.95848817 126.53731682 -88.27317932 122.76094252 -87.60571289 118.98120117 C-87.11094972 116.19090871 -86.5997196 113.40403191 -86.0859375 110.6171875 C-85.94100357 109.77226242 -85.79606964 108.92733734 -85.64674377 108.05680847 C-83.89395608 98.70106541 -79.65836313 92.85162548 -72.05078125 87.16796875 C-68.16942242 84.85408176 -66.60803947 84.16796875 -62.05078125 84.16796875 C-63.06398437 82.89953125 -63.06398437 82.89953125 -64.09765625 81.60546875 C-73.73810306 69.40852894 -73.73810306 69.40852894 -76.05078125 63.16796875 C-76.34597656 62.38679688 -76.64117187 61.605625 -76.9453125 60.80078125 C-81.38643824 47.13265912 -79.72634921 33.05137302 -73.92578125 20.10546875 C-67.13127271 7.32773628 -55.65636148 -1.39231559 -42.05078125 -5.83203125 C-28.10536153 -9.79654626 -12.24320727 -7.35219489 0 0 Z M-18.05078125 169.16796875 C-18.05078125 178.73796875 -18.05078125 188.30796875 -18.05078125 198.16796875 C-14.18359375 199.25078125 -14.18359375 199.25078125 -10.23828125 200.35546875 C-8.93262207 200.72224731 -8.93262207 200.72224731 -7.60058594 201.09643555 C-3.39400981 202.26961077 0.81717574 203.39673634 5.05859375 204.4375 C17.40732923 207.48153391 27.34859453 210.24194132 34.94921875 221.16796875 C38.80062551 228.39318152 39.53236763 234.98713041 39.48266602 243.06835938 C39.49558937 244.78746773 39.49558937 244.78746773 39.5087738 246.54130554 C39.53134283 250.30251108 39.52471154 254.06296613 39.515625 257.82421875 C39.52086419 260.45398173 39.52714175 263.08374282 39.53440857 265.71350098 C39.54622084 271.21418598 39.54060708 276.71465984 39.52563477 282.21533203 C39.50871015 288.55148366 39.52456554 294.88694647 39.55685765 301.22302294 C39.58687941 307.34840667 39.58871694 313.47347759 39.57935905 319.59892273 C39.57854124 322.19195959 39.58537198 324.78501099 39.60013008 327.37800598 C39.61762804 331.00836837 39.60298745 334.63727326 39.58032227 338.26757812 C39.59201447 339.3286528 39.60370667 340.38972748 39.61575317 341.48295593 C39.51547772 349.41197908 37.620106 356.06262347 32.23976994 362.0797348 C25.27639417 368.70725793 17.22118945 369.6736909 7.94921875 370.16796875 C12.85433715 373.43804768 18.14390618 373.82025106 23.94921875 373.16796875 C35.81727544 370.67732727 43.95852554 365.91995437 50.66015625 355.76953125 C54.76231522 347.49062861 55.37153651 340.11715697 55.28979492 330.93725586 C55.290233 329.63871674 55.29067108 328.34017761 55.29112244 327.00228882 C55.29197769 323.46768338 55.27442904 319.93338789 55.25340056 316.39885402 C55.23455459 312.69532673 55.23287712 308.99179111 55.22932434 305.28822327 C55.22002701 298.28671827 55.19544482 291.28535502 55.16527587 284.28391224 C55.13165955 276.30805914 55.11522773 268.332199 55.10018957 260.35629261 C55.06889297 243.96010189 55.01617787 227.56405345 54.94921875 211.16796875 C53.8096875 210.90169678 52.67015625 210.6354248 51.49609375 210.36108398 C47.23340202 209.35826995 42.97890616 208.32379641 38.72607422 207.2800293 C36.89121692 206.83430126 35.0542989 206.39696314 33.21533203 205.96850586 C14.08763745 201.50053379 14.08763745 201.50053379 7.94921875 194.16796875 C6.89453768 193.13017963 5.83224041 192.10006599 4.76196289 191.07836914 C3.75026039 190.05993829 2.74109925 189.03897715 1.734375 188.015625 C1.19316513 187.47062851 0.65195526 186.92563202 0.09434509 186.36412048 C-1.60237104 184.65536644 -3.29572877 182.94334638 -4.98828125 181.23046875 C-7.24455561 178.9476834 -9.50408199 176.66818935 -11.765625 174.390625 C-12.28221176 173.8657399 -12.79879852 173.3408548 -13.33103943 172.80006409 C-14.55217596 171.57042882 -15.79888814 170.36627628 -17.05078125 169.16796875 C-17.38078125 169.16796875 -17.71078125 169.16796875 -18.05078125 169.16796875 Z " fill="#17191E" transform="translate(316.05078125,22.83203125)"/>
<path d="M0 0 C4.39656173 -0.02465504 8.7930872 -0.04283842 13.18969727 -0.05493164 C14.68644918 -0.05997121 16.18319616 -0.06680287 17.67993164 -0.07543945 C19.82699807 -0.08752159 21.97399962 -0.09323191 24.12109375 -0.09765625 C25.4145874 -0.10289307 26.70808105 -0.10812988 28.04077148 -0.11352539 C31 0 31 0 32 1 C32.09785341 2.34544327 32.12797985 3.69592563 32.12939453 5.04492188 C32.13254669 5.90251099 32.13569885 6.7601001 32.13894653 7.64367676 C32.13591019 9.04208801 32.13591019 9.04208801 32.1328125 10.46875 C32.13424759 11.89471497 32.13424759 11.89471497 32.13571167 13.3494873 C32.13639357 15.36368882 32.13453862 17.37789252 32.13037109 19.39208984 C32.12502298 22.48670355 32.13031577 25.5811721 32.13671875 28.67578125 C32.13605797 30.62760449 32.13477681 32.57942764 32.1328125 34.53125 C32.13483673 35.46352417 32.13686096 36.39579834 32.13894653 37.35632324 C32.13579437 38.21391235 32.13264221 39.07150146 32.12939453 39.95507812 C32.12820114 41.09305847 32.12820114 41.09305847 32.12698364 42.25402832 C32 44 32 44 31 45 C29.12075863 45.10939177 27.23778597 45.15586786 25.35546875 45.17578125 C23.62780273 45.21155273 23.62780273 45.21155273 21.86523438 45.24804688 C19.42530477 45.29080719 16.98514721 45.3221704 14.54492188 45.34179688 C13.38927734 45.36951172 12.23363281 45.39722656 11.04296875 45.42578125 C9.98102295 45.44036377 8.91907715 45.45494629 7.82495117 45.4699707 C4.32772659 46.12613478 3.1240244 47.18649675 1 50 C0.75189444 52.67643877 0.75059015 54.80083803 1 57.4375 C1.05615479 58.17395752 1.11230957 58.91041504 1.17016602 59.66918945 C1.86016262 67.42539695 3.38300753 75.02150055 4.96484375 82.63671875 C5.74060913 86.47488633 6.35121668 90.30861003 6.88671875 94.1875 C8.18133916 103.53852106 9.77540791 112.83815884 11.3425293 122.14672852 C12.24106668 127.48892669 13.13156185 132.83246765 14.0234375 138.17578125 C15.38990395 146.35673106 15.38990395 146.35673106 16.76269531 154.53662109 C17.34785407 158.02344789 17.92556108 161.51139456 18.5 165 C18.65968262 165.93884033 18.81936523 166.87768066 18.98388672 167.8449707 C19.81894078 172.97065802 20.14428804 177.80563065 20 183 C18.70707031 183.20753906 17.41414063 183.41507813 16.08203125 183.62890625 C-1.77226313 186.70325815 -15.56066419 192.82014475 -26.8125 207.75 C-31.50148046 214.83335347 -34.3412957 222.70647849 -36 231 C-108.93 231 -181.86 231 -257 231 C-257 154.42556818 -257 154.42556818 -238.859375 135.5703125 C-226.87956187 124.80157338 -212.14997318 117.80847476 -195.9050293 117.88647461 C-195.10450638 117.88632858 -194.30398346 117.88618256 -193.47920227 117.8860321 C-190.8441798 117.88672645 -188.20922881 117.89449644 -185.57421875 117.90234375 C-183.74290506 117.90420963 -181.91159086 117.90563273 -180.08027649 117.90663147 C-175.26836765 117.91044328 -170.45648916 117.92026215 -165.64459229 117.93133545 C-160.73116466 117.94157831 -155.81773211 117.94613525 -150.90429688 117.95117188 C-141.26951794 117.96188563 -131.6347615 117.97894599 -122 118 C-122.40518517 122.05718809 -122.81422987 126.11396688 -123.22680664 130.17041016 C-123.36653254 131.54953555 -123.50521566 132.92876701 -123.64282227 134.30810547 C-123.84114767 136.29422337 -124.04357267 138.27993054 -124.24609375 140.265625 C-124.36654053 141.45961914 -124.4869873 142.65361328 -124.61108398 143.88378906 C-124.91993726 146.35849287 -125.36955354 148.59971839 -126 151 C-127.39457638 168.15328953 -122.65739563 181.15202286 -112.75 195.1875 C-106.58098881 201.49671599 -99.23639866 205.91865227 -91 209 C-89.71029297 209.53367187 -89.71029297 209.53367187 -88.39453125 210.078125 C-75.92189842 213.46539928 -61.29765049 212.18084757 -50 206 C-49.02804687 205.48050781 -48.05609375 204.96101562 -47.0546875 204.42578125 C-34.60354227 197.14847702 -27.21054583 186.46186281 -23.44425964 172.61920166 C-21.79890937 165.89881464 -21.55925587 159.50593783 -21.56762695 152.61230469 C-21.5574353 151.33283463 -21.54724365 150.05336456 -21.53674316 148.73512268 C-21.5094425 145.26691218 -21.49992588 141.79886555 -21.49388909 138.33056164 C-21.48443431 134.69103333 -21.45822591 131.05162411 -21.43388367 127.41217041 C-21.39040863 120.53835472 -21.36174557 113.66456238 -21.33856028 106.79065156 C-21.31140603 98.95732123 -21.26750136 91.12411184 -21.22227156 83.29086828 C-21.12969777 67.19397375 -21.05789304 51.09705745 -21 35 C-20.37918045 34.72987595 -19.7583609 34.45975189 -19.11872864 34.18144226 C-17.89943916 33.64629753 -17.89943916 33.64629753 -16.65551758 33.1003418 C-15.84907303 32.74771774 -15.04262848 32.39509369 -14.21174622 32.03178406 C-8.01181658 29.13950442 -3.12738928 24.28257766 -0.6862793 17.85864258 C0.17335195 14.27791607 0.16195496 10.84258641 0.09375 7.1875 C0.08359863 6.14819336 0.08359863 6.14819336 0.07324219 5.08789062 C0.05569686 3.39184212 0.02879821 1.69589476 0 0 Z " fill="#ED5875" transform="translate(410,201)"/>
<path d="M0 0 C6.82658645 3.8733211 12.78749652 8.92562045 18.8515625 13.8671875 C22.79390172 17.06616396 26.83459704 20.11807218 30.91015625 23.14453125 C36.60008065 27.37671779 42.21523445 31.68789686 47.77856445 36.08496094 C52.04409937 39.45576799 56.34079958 42.78330038 60.65722656 46.08886719 C63.93561952 48.60263194 67.19918875 51.13431805 70.453125 53.6796875 C71.25266602 54.30447998 72.05220703 54.92927246 72.87597656 55.57299805 C74.4457135 56.80056797 76.01414036 58.02981556 77.58105469 59.26098633 C78.30711914 59.82841553 79.03318359 60.39584473 79.78125 60.98046875 C80.42118896 61.48239746 81.06112793 61.98432617 81.72045898 62.50146484 C82.42243408 63.02305176 83.12440918 63.54463867 83.84765625 64.08203125 C84.77320313 64.76998779 85.69875 65.45794434 86.65234375 66.16674805 C90.17354913 68.27737276 93.0201146 69.04582572 97.0390625 69.828125 C98.40955915 70.11106698 99.78000023 70.3942782 101.15039062 70.67773438 C103.28425251 71.10263904 105.41913914 71.52126608 107.55541992 71.93383789 C109.63691037 72.3408626 111.71269011 72.77085907 113.7890625 73.203125 C115.02342041 73.44474365 116.25777832 73.6863623 117.52954102 73.93530273 C121.39550362 75.2713653 123.19281242 77.02204034 125.84765625 80.08203125 C126.17765625 80.41203125 126.50765625 80.74203125 126.84765625 81.08203125 C127.23152971 86.07238629 126.93478868 89.08019292 123.84765625 93.08203125 C119.71858539 95.83474516 116.48224947 95.55506306 111.64212036 94.68603516 C109.14721813 94.13254011 106.67212828 93.52399072 104.1953125 92.89453125 C103.29517929 92.6725708 102.39504608 92.45061035 101.46763611 92.22192383 C98.6131958 91.51621652 95.76170784 90.79931189 92.91015625 90.08203125 C90.96698147 89.59951639 89.02362374 89.1177377 87.08007812 88.63671875 C82.33377768 87.46033236 77.5900913 86.2739005 72.84765625 85.08203125 C72.84765625 84.42203125 72.84765625 83.76203125 72.84765625 83.08203125 C72.18765625 83.08203125 71.52765625 83.08203125 70.84765625 83.08203125 C70.84765625 82.42203125 70.84765625 81.76203125 70.84765625 81.08203125 C70.18765625 81.08203125 69.52765625 81.08203125 68.84765625 81.08203125 C68.84765625 80.42203125 68.84765625 79.76203125 68.84765625 79.08203125 C68.18765625 79.08203125 67.52765625 79.08203125 66.84765625 79.08203125 C66.84765625 78.42203125 66.84765625 77.76203125 66.84765625 77.08203125 C65.98140625 76.71078125 65.98140625 76.71078125 65.09765625 76.33203125 C62.51825646 74.89903137 60.78644033 73.29778449 58.84765625 71.08203125 C58.84765625 70.42203125 58.84765625 69.76203125 58.84765625 69.08203125 C57.36265625 68.58703125 57.36265625 68.58703125 55.84765625 68.08203125 C54.3046875 66.515625 54.3046875 66.515625 52.66015625 64.51953125 C50.09890739 61.50884549 47.48927352 58.59367743 44.72265625 55.76953125 C44.10132813 55.13402344 43.48 54.49851563 42.83984375 53.84375 C37.72378978 49.31955325 33.91223234 48.581958 27.28515625 48.64453125 C26.53041016 48.62455078 25.77566406 48.60457031 24.99804688 48.58398438 C21.37512193 48.58717638 19.29047452 48.74026818 16.3828125 50.984375 C14.15886215 54.02320792 13.73073272 55.60619399 13.80102539 59.31298828 C13.81952293 60.62543015 13.81952293 60.62543015 13.83839417 61.96438599 C13.86038124 63.38773758 13.86038124 63.38773758 13.8828125 64.83984375 C13.88884533 66.84764983 13.89200796 68.85546619 13.89257812 70.86328125 C13.89429336 74.03107628 13.90991386 77.19512009 13.97436523 80.36230469 C14.30479829 97.87388538 14.30479829 97.87388538 10.87329102 103.07397461 C8.3011113 105.16129858 5.81000695 106.61198862 2.84765625 108.08203125 C1.29796359 109.14048304 -0.23794518 110.21946243 -1.7578125 111.3203125 C-3.28259281 112.34886253 -4.80998565 113.37354921 -6.33984375 114.39453125 C-11.16043153 117.634418 -15.94876958 120.88330542 -20.57421875 124.3984375 C-21.5947937 125.17223755 -21.5947937 125.17223755 -22.63598633 125.96166992 C-23.90986126 126.93661481 -25.17581027 127.92203105 -26.43237305 128.91918945 C-30.57926002 132.08790903 -30.57926002 132.08790903 -33.4375 132.05859375 C-35.15234375 131.08203125 -35.15234375 131.08203125 -37.15234375 128.08203125 C-40.47768771 109.2881045 -34.82919233 89.50760298 -30.88017273 71.25854492 C-28.64962542 60.88633181 -26.74782117 50.45497638 -24.83984375 40.01953125 C-23.75969577 34.13232767 -22.67337432 28.24637593 -21.57366943 22.36279297 C-21.15922328 20.11927222 -20.75978911 17.87344622 -20.36181641 15.62695312 C-20.1115096 14.26683368 -19.86072444 12.90680215 -19.609375 11.546875 C-19.39901611 10.37374756 -19.18865723 9.20062012 -18.97192383 7.99194336 C-18.13328723 5.01437125 -17.46047685 3.70948408 -15.15234375 1.70703125 C-10.11068224 -1.02386873 -5.518245 -2.35351647 0 0 Z " fill="#74CFF5" transform="translate(267.15234375,123.91796875)"/>
<path d="M0 0 C29.7 0 59.4 0 90 0 C90 23.43 90 46.86 90 71 C60.3 71 30.6 71 0 71 C0 47.57 0 24.14 0 0 Z " fill="#FDCE43" transform="translate(123,227)"/>
<path d="M0 0 C3.33497089 0.7040382 6.65562501 1.45672556 9.9765625 2.22412109 C11.66265625 2.59633789 11.66265625 2.59633789 13.3828125 2.97607422 C29.25419147 6.61944568 29.25419147 6.61944568 34.4140625 11.91162109 C36.82817623 15.77420306 38.22464943 18.41418557 38.24398804 23.02828979 C38.25251801 23.95067444 38.26104797 24.87305908 38.26983643 25.82339478 C38.26893005 26.82816864 38.26802368 27.8329425 38.26708984 28.86816406 C38.27380707 29.93200317 38.28052429 30.99584229 38.28744507 32.09191895 C38.30646017 35.61259619 38.31035104 39.13308317 38.3125 42.65380859 C38.31892536 45.09994587 38.32565352 47.54608237 38.33267212 49.99221802 C38.3446536 55.12178326 38.34835203 60.25128112 38.34716797 65.38085938 C38.34696471 71.95389251 38.37427089 78.52649363 38.40871239 85.09942436 C38.43094911 90.15233343 38.4350065 95.20513798 38.43394852 100.25809097 C38.43630918 102.68139256 38.44515876 105.10469683 38.46061325 107.52795029 C38.48020754 110.91770439 38.47446023 114.30651986 38.46240234 117.69628906 C38.47364136 118.69701447 38.48488037 119.69773987 38.49645996 120.72879028 C38.44349297 126.58822395 37.88386414 129.94814222 33.9765625 134.41162109 C30.61042603 136.09468933 26.86222742 135.68047635 23.1640625 135.72412109 C22.35646484 135.753125 21.54886719 135.78212891 20.71679688 135.81201172 C16.65432456 135.8552649 14.51054164 135.73644109 10.96484375 133.57958984 C7.12737359 129.39531492 7.83781508 124.67788159 7.85058594 119.32202148 C7.8487178 118.3916658 7.84684967 117.46131012 7.84492493 116.50276184 C7.84091963 114.48113851 7.83884597 112.45951064 7.83846283 110.43788338 C7.83505156 106.14415361 7.81369735 101.85057587 7.79323196 97.55689907 C7.75517233 89.55931517 7.72395135 81.56189376 7.72607422 73.56420898 C7.72685983 68.00383457 7.70356358 62.44401642 7.6641922 56.88378716 C7.65370878 54.76310156 7.6522253 52.64235195 7.65984344 50.52165413 C7.66943136 47.55735855 7.64834772 44.59475759 7.62011719 41.63061523 C7.63031387 40.75203857 7.64051056 39.87346191 7.65101624 38.96826172 C7.58721339 33.8888276 7.58721339 33.8888276 4.56504822 29.88389587 C2.22490573 28.55287336 0.49512782 27.74379648 -2.12890625 27.25537109 C-2.9079834 27.10841797 -3.68706055 26.96146484 -4.48974609 26.81005859 C-9.09514321 26.08583349 -13.70822707 25.47433168 -18.3359375 24.91162109 C-26.26804585 23.9151187 -34.15741917 22.84949541 -42.0234375 21.41162109 C-42.0234375 20.75162109 -42.0234375 20.09162109 -42.0234375 19.41162109 C-40.1796875 18.10693359 -40.1796875 18.10693359 -37.5234375 16.53662109 C-30.21620027 12.03620025 -23.4663818 6.8431869 -16.65820312 1.62915039 C-10.97069856 -2.60674944 -6.61306913 -1.28694255 0 0 Z " fill="#FCCD43" transform="translate(301.0234375,239.58837890625)"/>
<path d="M0 0 C0.99 0.495 0.99 0.495 2 1 C2.81247013 14.54116881 1.73387264 23.86894946 -6.875 34.9375 C-12.93979631 41.41186696 -21.07663592 45.41487743 -29.88671875 46.28515625 C-41.44241284 46.62546478 -50.21441422 43.56958775 -59 36 C-63.84606391 30.98754763 -69 23.20518186 -69 16 C-67.998479 15.99589111 -66.99695801 15.99178223 -65.96508789 15.98754883 C-62.1605651 15.96536712 -58.35702068 15.91069424 -54.55297852 15.84741211 C-52.9231929 15.82456539 -51.29326663 15.80991684 -49.66333008 15.80444336 C-34.39708129 15.74317098 -19.79050665 13.7719974 -7.0625 4.625 C-4.73576431 3.01711143 -2.40815039 1.48801222 0 0 Z " fill="#8075B5" transform="translate(465,433)"/>
<path d="M0 0 C0.71287674 0.0116922 1.42575348 0.0233844 2.16023254 0.03543091 C3.30507866 0.02469795 3.30507866 0.02469795 4.47305298 0.01374817 C6.98723341 -0.00311292 9.49962405 0.01624668 12.01374817 0.03762817 C13.76582486 0.03679923 15.51790148 0.03433887 17.26997375 0.03031921 C20.93854739 0.027463 24.60650989 0.04214469 28.27497864 0.0696106 C32.97281228 0.10369342 37.66955333 0.09767369 42.36743927 0.07894802 C45.9843605 0.06836955 49.60102835 0.07732348 53.21792603 0.09233284 C54.94984179 0.09750891 56.68178408 0.09703982 58.41369629 0.09078789 C60.83629571 0.08532526 63.25734152 0.10574215 65.67976379 0.13308716 C66.39264053 0.12656128 67.10551727 0.1200354 67.83999634 0.11331177 C72.62175793 0.20489584 75.05829275 1.28392815 78.41999817 4.66653442 C80.80979128 9.44612064 79.41999817 15.32279458 79.41999817 20.66653442 C49.71999817 20.66653442 20.01999817 20.66653442 -10.58000183 20.66653442 C-10.58000183 0.20151392 -10.58000183 0.20151392 0 0 Z " fill="#F8CA42" transform="translate(133.5800018310547,189.33346557617188)"/>
<path d="M0 0 C24.75 0 49.5 0 75 0 C71.60220091 11.32599695 67.15112566 19.10288103 57.0234375 25.1875 C47.82870207 30.01562363 38.22970327 31.6546525 27.99609375 29.3125 C17.32509649 25.75055376 8.10976447 18.41142918 2.609375 8.4921875 C0 2.77728873 0 2.77728873 0 0 Z " fill="#8176B5" transform="translate(184,449)"/>
<path d="M0 0 C0 0.66 0 1.32 0 2 C-0.6290625 2.27972656 -1.258125 2.55945312 -1.90625 2.84765625 C-13.67146464 8.35817094 -19.75537581 14.9905707 -25 27 C-25.98443933 30.95180858 -26.19108974 34.76819599 -26.31640625 38.83203125 C-26.35830078 40.12431641 -26.40019531 41.41660156 -26.44335938 42.74804688 C-26.48316352 44.10286192 -26.52287591 45.45767967 -26.5625 46.8125 C-26.60573723 48.18686105 -26.64935312 49.56121024 -26.69335938 50.93554688 C-26.7992979 54.29026669 -26.90137189 57.6450586 -27 61 C-35.30532411 59.75647526 -41.56179828 55.53520362 -46.71484375 48.875 C-47.35099609 47.946875 -47.35099609 47.946875 -48 47 C-48.41378906 46.401875 -48.82757813 45.80375 -49.25390625 45.1875 C-53.43627388 37.72627273 -53.18610268 28.2689907 -52 20 C-49.21372648 10.4425561 -43.20292417 3.81290858 -34.8203125 -1.33984375 C-22.90147643 -7.6590757 -11.85714107 -5.2782186 0 0 Z " fill="#8B7C8C" transform="translate(307,38)"/>
<path d="M0 0 C1.01320313 -0.01474365 2.02640625 -0.0294873 3.0703125 -0.04467773 C11.90785859 0.07542889 19.96865587 2.02305751 26.5 8.3125 C27.47839844 9.23289062 27.47839844 9.23289062 28.4765625 10.171875 C29.16878906 10.86023438 29.16878906 10.86023438 29.875 11.5625 C28.37147382 16.07307855 25.01835771 17.44089281 21.125 19.9375 C20.42761719 20.40671875 19.73023438 20.8759375 19.01171875 21.359375 C5.50147374 30.10840665 -6.29105257 31.24418427 -21.9375 30.875 C-23.80530838 30.84986235 -25.67314969 30.82705892 -27.54101562 30.80664062 C-32.06983928 30.75213211 -36.59704592 30.66616926 -41.125 30.5625 C-40.65516789 29.11585876 -40.18214153 27.67025466 -39.70776367 26.22509766 C-39.44468918 25.41996735 -39.18161469 24.61483704 -38.91056824 23.78530884 C-35.55814421 14.29943938 -27.86459142 7.19983011 -19.125 2.625 C-12.84842771 0.2010552 -6.68386804 0.06469903 0 0 Z " fill="#F090AF" transform="translate(432.125,401.4375)"/>
<path d="M0 0 C10.2540397 0.54319836 20.2904704 1.98586275 30.42358398 3.58398438 C33.08822337 4.0040552 35.75394106 4.41666156 38.41992188 4.828125 C40.12506642 5.09332328 41.83014704 5.35893304 43.53515625 5.625 C44.32680679 5.74794434 45.11845734 5.87088867 45.93409729 5.99755859 C49.33401713 6.53534821 52.66993589 7.13101409 56 8 C56.0272616 10.04159095 56.04651345 12.08328963 56.0625 14.125 C56.07410156 15.26195312 56.08570313 16.39890625 56.09765625 17.5703125 C56.00520301 20.81727013 55.5659374 23.80803475 55 27 C47.4723122 27.0462929 39.94463912 27.08185365 32.41684151 27.10362434 C28.92156073 27.11407198 25.42637717 27.12824883 21.93115234 27.15087891 C17.91502944 27.17671953 13.89900903 27.18646466 9.8828125 27.1953125 C7.99527756 27.21079636 7.99527756 27.21079636 6.0696106 27.22659302 C4.90855804 27.22674408 3.74750549 27.22689514 2.55126953 27.22705078 C1.52534698 27.231492 0.49942444 27.23593323 -0.55758667 27.24050903 C-3 27 -3 27 -5 25 C-5.28200137 22.23935501 -5.42814598 19.63882039 -5.4375 16.875 C-5.44136719 16.10615479 -5.44523438 15.33730957 -5.44921875 14.54516602 C-5.32336276 8.37232299 -4.06571859 4.77721935 0 0 Z " fill="#8C7C8C" transform="translate(236,275)"/>
<path d="M0 0 C1.53642151 -0.00717545 1.53642151 -0.00717545 3.10388184 -0.01449585 C5.26572204 -0.01789264 7.42761375 -0.00870578 9.58935547 0.01220703 C12.8953726 0.03897443 16.19799453 0.01245033 19.50390625 -0.01953125 C21.60677832 -0.01622711 23.70964827 -0.00982081 25.8125 0 C27.29236389 -0.01518173 27.29236389 -0.01518173 28.80212402 -0.03067017 C33.51959062 0.04975638 35.6965997 0.11503218 39.5246582 3.07666016 C41.32674708 5.55473696 42.11195027 6.65495126 42.09375 9.6640625 C42.11824219 10.3034375 42.14273438 10.9428125 42.16796875 11.6015625 C40.91162072 15.00336639 38.48590123 16.94144429 35.40625 18.6640625 C31.99483185 19.38506527 28.66476057 19.36578446 25.1875 19.328125 C23.72334656 19.33530045 23.72334656 19.33530045 22.22961426 19.34262085 C20.17210268 19.34601344 18.11453674 19.33685605 16.05712891 19.31591797 C12.91576438 19.28914359 9.77797273 19.31568795 6.63671875 19.34765625 C4.63280465 19.34435204 2.62889276 19.33794557 0.625 19.328125 C-0.30953003 19.33824615 -1.24406006 19.34836731 -2.20690918 19.35879517 C-6.62623445 19.27974515 -9.66577948 19.08063642 -13.18481445 16.25146484 C-15.59375 13.6640625 -15.59375 13.6640625 -16.35546875 11.6015625 C-16.33097656 10.9621875 -16.30648438 10.3228125 -16.28125 9.6640625 C-16.28511719 9.0246875 -16.28898437 8.3853125 -16.29296875 7.7265625 C-13.58082282 -0.27351041 -7.15959423 -0.07344935 0 0 Z " fill="#15181D" transform="translate(42.59375,288.3359375)"/>
<path d="M0 0 C1.94336609 1.94336609 1.21081114 5.60076562 1.23828125 8.25390625 C1.246353 8.98818344 1.25442474 9.72246063 1.26274109 10.47898865 C1.27660405 12.04008613 1.28731626 13.60121421 1.29516602 15.16235352 C1.31225635 17.52876366 1.35610325 19.89373132 1.40039062 22.25976562 C1.49527939 31.46086214 1.30799752 38.33300268 -5.25 45.4375 C-8.8905777 47.50601006 -11.84549305 47.56335284 -16 48 C-23.53898144 17.95635695 -23.53898144 17.95635695 -18.4375 8.5625 C-13.27067804 1.06032292 -9.12690162 -2.20304522 0 0 Z " fill="#E8C5B9" transform="translate(318,57)"/>
<path d="M0 0 C0.87315353 -0.00570007 1.74630707 -0.01140015 2.6459198 -0.01727295 C4.49611192 -0.02672845 6.34632093 -0.03325911 8.1965332 -0.03710938 C11.02129719 -0.04680065 13.84532919 -0.07781255 16.66992188 -0.109375 C18.4674436 -0.11590652 20.26497052 -0.12115641 22.0625 -0.125 C22.90537064 -0.1373468 23.74824127 -0.1496936 24.61665344 -0.16241455 C29.30762528 -0.14468392 32.42823922 0.1367055 36.23046875 3.203125 C37.79518108 6.33254965 37.92748833 9.81394723 37.23046875 13.203125 C35.55913977 15.65858725 34.21276608 17.01375051 31.23973083 17.58691406 C28.68851982 17.75069064 26.16587125 17.78355392 23.609375 17.76953125 C22.67246323 17.77572983 21.73555145 17.78192841 20.77024841 17.78831482 C18.79077187 17.79541178 16.81123563 17.79224112 14.83178711 17.77954102 C11.80665898 17.76568769 8.78463189 17.79973206 5.75976562 17.83789062 C3.83463466 17.83884197 1.90949983 17.83698218 -0.015625 17.83203125 C-0.91784286 17.84528946 -1.82006073 17.85854767 -2.74961853 17.87220764 C-7.23888964 17.80582695 -9.17645538 17.65679766 -12.84399414 14.85131836 C-14.76953125 12.203125 -14.76953125 12.203125 -15.33203125 9.203125 C-14.64595468 5.54404996 -13.34218811 3.85144824 -10.76953125 1.203125 C-7.42901748 -0.46713189 -3.67425361 0.01839361 0 0 Z " fill="#1B1A20" transform="translate(197.76953125,395.796875)"/>
<path d="M0 0 C0.89110474 -0.00004028 1.78220947 -0.00008057 2.70031738 -0.00012207 C4.57974317 0.00522679 6.45916887 0.0227825 8.33837891 0.05175781 C11.20935682 0.09361306 14.07798712 0.09282413 16.94921875 0.0859375 C18.77866208 0.09643083 20.60809335 0.1093697 22.4375 0.125 C23.29283325 0.12520142 24.1481665 0.12540283 25.02941895 0.12561035 C29.72293451 0.21846049 32.91641945 0.53315487 36.71875 3.59375 C38.28810594 6.73246188 38.07076103 9.13230822 37.71875 12.59375 C35.71597598 15.39002335 34.12525559 17.27789865 30.67037964 18.05374146 C28.1611992 18.23950728 25.69940056 18.26054495 23.18359375 18.22265625 C21.81008507 18.22627419 21.81008507 18.22627419 20.40882874 18.22996521 C18.4781561 18.22898799 16.54745502 18.21562416 14.61694336 18.19067383 C11.66228153 18.15632013 8.71060414 18.17003181 5.75585938 18.18945312 C3.87759144 18.18255564 1.99933122 18.17288414 0.12109375 18.16015625 C-0.76127457 18.16511612 -1.64364288 18.17007599 -2.55274963 18.17518616 C-8.66797963 18.0577199 -8.66797963 18.0577199 -11.80639648 15.68334961 C-14.30477073 12.14360699 -14.79400162 9.95213873 -14.28125 5.59375 C-10.14989535 -0.06558305 -6.50038531 -0.12460118 0 0 Z " fill="#17191E" transform="translate(197.28125,366.40625)"/>
<path d="M0 0 C1.6406543 -0.0309375 1.6406543 -0.0309375 3.31445312 -0.0625 C4.37212891 -0.06765625 5.42980469 -0.0728125 6.51953125 -0.078125 C7.48608643 -0.0874707 8.4526416 -0.09681641 9.44848633 -0.10644531 C12.71311668 0.31840185 14.54582249 1.31070594 17.1875 3.25 C19.1875 6.25 19.1875 6.25 19.125 9.6875 C17.98977331 14.00136143 16.88286073 14.87626287 13.1875 17.25 C10.29663086 17.76757812 10.29663086 17.76757812 7.15234375 17.78125 C6.01345703 17.78640625 4.87457031 17.7915625 3.70117188 17.796875 C2.52103516 17.78140625 1.34089844 17.7659375 0.125 17.75 C-1.65100586 17.77320313 -1.65100586 17.77320313 -3.46289062 17.796875 C-5.16928711 17.78914063 -5.16928711 17.78914063 -6.91015625 17.78125 C-7.94664307 17.77673828 -8.98312988 17.77222656 -10.05102539 17.76757812 C-13.51412579 17.11849556 -14.67456399 16.00401416 -16.8125 13.25 C-17.8125 9.8125 -17.8125 9.8125 -17.8125 6.25 C-13.17167105 -1.11131488 -7.98586536 0.03725185 0 0 Z " fill="#1A1C1E" transform="translate(152.8125,263.75)"/>
</svg>
